<svg xmlns="http://www.w3.org/2000/svg" version="1.1" xmlns:xlink="http://www.w3.org/1999/xlink" xmlns:svgjs="http://svgjs.dev/svgjs" viewBox="0 0 1422 800" opacity="0.31"><defs><linearGradient x1="50%" y1="0%" x2="50%" y2="100%" id="oooscillate-grad"><stop stop-color="hsl(205, 69%, 60%)" stop-opacity="1" offset="0%"></stop><stop stop-color="hsl(205, 69%, 80%)" stop-opacity="1" offset="100%"></stop></linearGradient></defs><g stroke-width="1" stroke="hsl(0, 0%, 53%)" fill="none" stroke-linecap="round"><path d="M 0 416 Q 355.5 295 711 400 Q 1066.5 505 1422 416" opacity="1.00"></path><path d="M 0 403 Q 355.5 295 711 400 Q 1066.5 505 1422 403" opacity="0.97"></path><path d="M 0 390 Q 355.5 295 711 400 Q 1066.5 505 1422 390" opacity="0.94"></path><path d="M 0 377 Q 355.5 295 711 400 Q 1066.5 505 1422 377" opacity="0.91"></path><path d="M 0 364 Q 355.5 295 711 400 Q 1066.5 505 1422 364" opacity="0.88"></path><path d="M 0 351 Q 355.5 295 711 400 Q 1066.5 505 1422 351" opacity="0.85"></path><path d="M 0 338 Q 355.5 295 711 400 Q 1066.5 505 1422 338" opacity="0.82"></path><path d="M 0 325 Q 355.5 295 711 400 Q 1066.5 505 1422 325" opacity="0.79"></path><path d="M 0 312 Q 355.5 295 711 400 Q 1066.5 505 1422 312" opacity="0.75"></path><path d="M 0 299 Q 355.5 295 711 400 Q 1066.5 505 1422 299" opacity="0.72"></path><path d="M 0 286 Q 355.5 295 711 400 Q 1066.5 505 1422 286" opacity="0.69"></path><path d="M 0 273 Q 355.5 295 711 400 Q 1066.5 505 1422 273" opacity="0.66"></path><path d="M 0 260 Q 355.5 295 711 400 Q 1066.5 505 1422 260" opacity="0.63"></path><path d="M 0 247 Q 355.5 295 711 400 Q 1066.5 505 1422 247" opacity="0.60"></path><path d="M 0 234 Q 355.5 295 711 400 Q 1066.5 505 1422 234" opacity="0.57"></path><path d="M 0 221 Q 355.5 295 711 400 Q 1066.5 505 1422 221" opacity="0.54"></path><path d="M 0 208 Q 355.5 295 711 400 Q 1066.5 505 1422 208" opacity="0.51"></path><path d="M 0 195 Q 355.5 295 711 400 Q 1066.5 505 1422 195" opacity="0.48"></path><path d="M 0 182 Q 355.5 295 711 400 Q 1066.5 505 1422 182" opacity="0.45"></path><path d="M 0 169 Q 355.5 295 711 400 Q 1066.5 505 1422 169" opacity="0.42"></path><path d="M 0 156 Q 355.5 295 711 400 Q 1066.5 505 1422 156" opacity="0.39"></path><path d="M 0 143 Q 355.5 295 711 400 Q 1066.5 505 1422 143" opacity="0.36"></path><path d="M 0 130 Q 355.5 295 711 400 Q 1066.5 505 1422 130" opacity="0.33"></path><path d="M 0 117 Q 355.5 295 711 400 Q 1066.5 505 1422 117" opacity="0.30"></path><path d="M 0 104 Q 355.5 295 711 400 Q 1066.5 505 1422 104" opacity="0.26"></path><path d="M 0 91 Q 355.5 295 711 400 Q 1066.5 505 1422 91" opacity="0.23"></path><path d="M 0 78 Q 355.5 295 711 400 Q 1066.5 505 1422 78" opacity="0.20"></path><path d="M 0 65 Q 355.5 295 711 400 Q 1066.5 505 1422 65" opacity="0.17"></path><path d="M 0 52 Q 355.5 295 711 400 Q 1066.5 505 1422 52" opacity="0.14"></path><path d="M 0 39 Q 355.5 295 711 400 Q 1066.5 505 1422 39" opacity="0.11"></path><path d="M 0 26 Q 355.5 295 711 400 Q 1066.5 505 1422 26" opacity="0.08"></path></g></svg>